<?xml version="1.0" encoding="utf-8"?>
<!DOCTYPE svg PUBLIC "-//W3C//DTD SVG 1.1//EN" "http://www.w3.org/Graphics/SVG/1.1/DTD/svg11.dtd">
<svg version="1.1" id="Cartoon_Sun" xmlns="http://www.w3.org/2000/svg" xmlns:xlink="http://www.w3.org/1999/xlink" x="0px"
	 y="0px" viewBox="0 0 1000 1000" style="enable-background:new 0 0 1000 1000;" xml:space="preserve">
<style type="text/css">
	.st0{fill:#F5D224;}
	.st1{fill:none;stroke:#F5D224;stroke-width:4.630900e-002;stroke-miterlimit:10;}
</style>
<g id="Sun">
	<path class="st0" d="M546,119.5h4.8c6.8,1.3,13.6,4.5,17.6,10.4c4.4,6.4,5.1,14.5,4.6,22c-1.6,35.3-5.8,71-17.6,104.5
		c-2.6,6.6-6.4,12.8-11.5,17.7c-3.9,3.8-9.4,6.3-14.9,5.5c-6.7-0.8-12.7-5.1-15.7-11.1c-4.1-8-4.7-17.2-4.6-26.1
		c-0.3-33.8,4.3-68.2,17.1-99.6c2.5-5.9,4.8-12,9-16.8C537.6,122.5,541.6,120.1,546,119.5L546,119.5z"/>
	<path class="st1" d="M546,119.5h4.8c6.8,1.3,13.6,4.5,17.6,10.4c4.4,6.4,5.1,14.5,4.6,22c-1.6,35.3-5.8,71-17.6,104.5
		c-2.6,6.6-6.4,12.8-11.5,17.7c-3.9,3.8-9.4,6.3-14.9,5.5c-6.7-0.8-12.7-5.1-15.7-11.1c-4.1-8-4.7-17.2-4.6-26.1
		c-0.3-33.8,4.3-68.2,17.1-99.6c2.5-5.9,4.8-12,9-16.8C537.6,122.5,541.6,120.1,546,119.5L546,119.5z"/>
	<path class="st0" d="M302.2,134.5c4.1-1.1,7.8,2,10.9,4.3c11.1,9.6,19.4,22,27.1,34.4c17.9,28.8,31.3,60.8,36.5,94.5
		c1.1,4.5-0.9,9.2-3.6,12.7c-3.5,4.2-9.6,4.5-14.5,3.2c-2.9-0.9-6.2-1.6-8.4-3.9c-13.5-12-26-25.1-36.2-40.1
		c-10.5-15.4-18.3-32.9-20.7-51.6c-2.1-15.9-0.1-32.1,5-47.2C299,138.5,299.6,135.5,302.2,134.5L302.2,134.5z"/>
	<path class="st1" d="M302.2,134.5c4.1-1.1,7.8,2,10.9,4.3c11.1,9.6,19.4,22,27.1,34.4c17.9,28.8,31.3,60.8,36.5,94.5
		c1.1,4.5-0.9,9.2-3.6,12.7c-3.5,4.2-9.6,4.5-14.5,3.2c-2.9-0.9-6.2-1.6-8.4-3.9c-13.5-12-26-25.1-36.2-40.1
		c-10.5-15.4-18.3-32.9-20.7-51.6c-2.1-15.9-0.1-32.1,5-47.2C299,138.5,299.6,135.5,302.2,134.5L302.2,134.5z"/>
	<path class="st0" d="M760.1,254.4c6.1-1.4,12.4,0.9,17.1,4.8c4.4,3.8,8.7,8.2,9.9,14.1c1.2,5.4-1.2,10.9-4.6,14.9
		c-3,3.5-6.5,6.5-9.8,9.7c-14.2,13.4-29,26.2-45.5,36.7c-9.2,5.7-18.9,10.9-29.5,13.6c-8,2-17.2,2-24.3-2.7c-4.3-3-8.8-6.7-9.7-12.2
		c-0.9-5.6,2.4-10.8,6-14.8c13.6-15.6,30.9-27.3,48.1-38.6c11.5-7.7,23.2-15.1,34.8-22.7C755.1,256,757.5,254.9,760.1,254.4
		L760.1,254.4z"/>
	<path class="st1" d="M760.1,254.4c6.1-1.4,12.4,0.9,17.1,4.8c4.4,3.8,8.7,8.2,9.9,14.1c1.2,5.4-1.2,10.9-4.6,14.9
		c-3,3.5-6.5,6.5-9.8,9.7c-14.2,13.4-29,26.2-45.5,36.7c-9.2,5.7-18.9,10.9-29.5,13.6c-8,2-17.2,2-24.3-2.7c-4.3-3-8.8-6.7-9.7-12.2
		c-0.9-5.6,2.4-10.8,6-14.8c13.6-15.6,30.9-27.3,48.1-38.6c11.5-7.7,23.2-15.1,34.8-22.7C755.1,256,757.5,254.9,760.1,254.4
		L760.1,254.4z"/>
	<path class="st0" d="M154.1,272.1c5.6-1.2,11.2,0.4,16.7,1.6c24.7,6.4,48.4,16.2,70.8,28.4c10.6,5.8,21,12,30.7,19.2
		c6.9,5.3,13.6,11,18.5,18.3c2.3,3.4,4.2,7.1,4.8,11.2c1.3,7.8-4.3,15.9-11.9,18c-6.7,1.8-13.7,0.6-20.3-1
		c-19.9-5.5-38.2-15.4-55.3-26.9c-10.9-7-21.2-14.9-30.6-23.8c-7.8-7.4-15.2-15.3-20.9-24.4c-3.3-5.4-6.3-11.6-5.1-18.1
		C151.7,273.3,152.9,272.4,154.1,272.1L154.1,272.1z"/>
	<path class="st1" d="M154.1,272.1c5.6-1.2,11.2,0.4,16.7,1.6c24.7,6.4,48.4,16.2,70.8,28.4c10.6,5.8,21,12,30.7,19.2
		c6.9,5.3,13.6,11,18.5,18.3c2.3,3.4,4.2,7.1,4.8,11.2c1.3,7.8-4.3,15.9-11.9,18c-6.7,1.8-13.7,0.6-20.3-1
		c-19.9-5.5-38.2-15.4-55.3-26.9c-10.9-7-21.2-14.9-30.6-23.8c-7.8-7.4-15.2-15.3-20.9-24.4c-3.3-5.4-6.3-11.6-5.1-18.1
		C151.7,273.3,152.9,272.4,154.1,272.1L154.1,272.1z"/>
	<path class="st0" d="M434.4,286.8c6.3-0.9,12.8-0.1,18.7,2.3c5.6,2.2,10.1,6.8,12.1,12.5c2.6,7.1,2.1,14.8,1.2,22.2
		c-1.5,11.8-6.6,23.2-14.5,32.1c-3.3,3.6-6.7,7.4-11.1,9.7c-11,6.5-20.8,14.8-29.9,23.7c-17.6,17-31.7,37.7-40.2,60.6
		c-8.8,23.8-13,49.9-8.3,75.1c5.9,31.9,27.5,60.9,57.1,74.6c13.3,6.1,27.9,9.1,42.5,9.7c22.6,1.1,45.5-3.2,66.1-12.4
		c16.6-7.3,31.7-17.7,45.3-29.7c13.2-11.5,24.8-24.8,34-39.8c11.5-18.6,19.1-39.6,22.2-61.2c1.9-13.3,2.2-26.9,0-40.2
		c-0.1-0.9-0.7-1.6-1.2-2.3c-6.3-8.6-13.7-16.6-22.5-22.8c-9.3-6.6-20.1-11-31.4-12.5c-12.1-1.6-24.4,0.1-36.1,3.4
		c-12.3,3.6-24,9-35.2,15.3c-9.8,5.7-19.2,12.6-25.9,22c-5.3,7.3-8.3,16.3-8,25.4c0.3,10.8,4.7,21.1,10.2,30.2
		c0.8,1.5,2.2,2.5,3.5,3.6c4.7,4,9.4,8,14.9,11c1.9,0.9,4.1,2.2,6.2,1.2c1.5-1.5,1-3.8,0.8-5.7c-1.8-8.1-5.7-15.6-9.1-23.2
		c-2.7-6.4-4.1-13.9-1.6-20.6c2.3-6.2,7.7-10.5,13-14.1c11.6-7.1,25.9-7.1,38.9-5c10.9,1.5,21.4,6.6,28.9,14.8
		c7.2,7.9,12.5,17.7,14.1,28.3c1.9,12.2-0.3,24.7-4.6,36.2c-3.9,10.2-8.9,20.1-15.8,28.6c-6.6,8.3-14.9,15.5-24.4,20.4
		c-11.2,5.9-23.9,8.6-36.5,9.1c-14.7,0.8-29.5,1.1-44-1.8c-6.3-1.4-12.9-3.5-17.6-8.2c-7.1-6.8-12.1-15.4-16.7-24
		c-6.3-12.1-11.5-24.7-16.3-37.4c-5.1-13.6-6.5-28.6-3.6-42.9c4.6-23.3,18.4-43.6,34.1-60.8c15.4-16.6,32.9-31.6,52.4-43.2
		c21.4-12.6,46.1-20.4,71.1-19.7c14.3,0.4,28.5,3.3,42.1,7.9c20,6.8,38.3,18.6,52.2,34.5c7.7,8.8,14.4,18.5,19.5,29
		c7.4,21.3,9.2,44.1,9.7,66.5c0.2,12.1-0.2,24.1-0.9,36.2c-1,17.5-5.8,34.7-13.9,50.3c-7.6,14.6-17.9,27.6-29.7,39
		c-11.3,10.9-23.9,20.4-37.2,28.7c-31.5,20-66.6,34.4-103.2,41.9c-19.3,3.9-39,6.4-58.8,6.4c-26.2-0.1-52.6-5.8-75.8-18.1
		c-19-9.9-35.6-24-49.6-40.2c-15.7-18.3-26.8-40.5-32.4-64c-6.6-27.3-6.6-55.7-2.7-83.4c3.7-26.1,11.8-51.8,24.8-74.8
		c6.5-11.6,14.3-22.5,23.1-32.5c7.4-8.5,15.7-16.3,24.1-23.7c9.5-8.4,19.3-16.6,29.5-24.2c8.9-6.6,18.2-12.8,28.2-17.8
		C422,290.3,428,287.9,434.4,286.8L434.4,286.8z"/>
	<path class="st1" d="M434.4,286.8c6.3-0.9,12.8-0.1,18.7,2.3c5.6,2.2,10.1,6.8,12.1,12.5c2.6,7.1,2.1,14.8,1.2,22.2
		c-1.5,11.8-6.6,23.2-14.5,32.1c-3.3,3.6-6.7,7.4-11.1,9.7c-11,6.5-20.8,14.8-29.9,23.7c-17.6,17-31.7,37.7-40.2,60.6
		c-8.8,23.8-13,49.9-8.3,75.1c5.9,31.9,27.5,60.9,57.1,74.6c13.3,6.1,27.9,9.1,42.5,9.7c22.6,1.1,45.5-3.2,66.1-12.4
		c16.6-7.3,31.7-17.7,45.3-29.7c13.2-11.5,24.8-24.8,34-39.8c11.5-18.6,19.1-39.6,22.2-61.2c1.9-13.3,2.2-26.9,0-40.2
		c-0.1-0.9-0.7-1.6-1.2-2.3c-6.3-8.6-13.7-16.6-22.5-22.8c-9.3-6.6-20.1-11-31.4-12.5c-12.1-1.6-24.4,0.1-36.1,3.4
		c-12.3,3.6-24,9-35.2,15.3c-9.8,5.7-19.2,12.6-25.9,22c-5.3,7.3-8.3,16.3-8,25.4c0.3,10.8,4.7,21.1,10.2,30.2
		c0.8,1.5,2.2,2.5,3.5,3.6c4.7,4,9.4,8,14.9,11c1.9,0.9,4.1,2.2,6.2,1.2c1.5-1.5,1-3.8,0.8-5.7c-1.8-8.1-5.7-15.6-9.1-23.2
		c-2.7-6.4-4.1-13.9-1.6-20.6c2.3-6.2,7.7-10.5,13-14.1c11.6-7.1,25.9-7.1,38.9-5c10.9,1.5,21.4,6.6,28.9,14.8
		c7.2,7.9,12.5,17.7,14.1,28.3c1.9,12.2-0.3,24.7-4.6,36.2c-3.9,10.2-8.9,20.1-15.8,28.6c-6.6,8.3-14.9,15.5-24.4,20.4
		c-11.2,5.9-23.9,8.6-36.5,9.1c-14.7,0.8-29.5,1.1-44-1.8c-6.3-1.4-12.9-3.5-17.6-8.2c-7.1-6.8-12.1-15.4-16.7-24
		c-6.3-12.1-11.5-24.7-16.3-37.4c-5.1-13.6-6.5-28.6-3.6-42.9c4.6-23.3,18.4-43.6,34.1-60.8c15.4-16.6,32.9-31.6,52.4-43.2
		c21.4-12.6,46.1-20.4,71.1-19.7c14.3,0.4,28.5,3.3,42.1,7.9c20,6.8,38.3,18.6,52.2,34.5c7.7,8.8,14.4,18.5,19.5,29
		c7.4,21.3,9.2,44.1,9.7,66.5c0.2,12.1-0.2,24.1-0.9,36.2c-1,17.5-5.8,34.7-13.9,50.3c-7.6,14.6-17.9,27.6-29.7,39
		c-11.3,10.9-23.9,20.4-37.2,28.7c-31.5,20-66.6,34.4-103.2,41.9c-19.3,3.9-39,6.4-58.8,6.4c-26.2-0.1-52.6-5.8-75.8-18.1
		c-19-9.9-35.6-24-49.6-40.2c-15.7-18.3-26.8-40.5-32.4-64c-6.6-27.3-6.6-55.7-2.7-83.4c3.7-26.1,11.8-51.8,24.8-74.8
		c6.5-11.6,14.3-22.5,23.1-32.5c7.4-8.5,15.7-16.3,24.1-23.7c9.5-8.4,19.3-16.6,29.5-24.2c8.9-6.6,18.2-12.8,28.2-17.8
		C422,290.3,428,287.9,434.4,286.8L434.4,286.8z"/>
	<path class="st0" d="M855.2,431.7c7.3-0.1,15-1.8,22,1c5.5,2.2,8.6,7.8,9.6,13.4c0.8,3.4,0.2,6.8,0.4,10.2c0.3,6.3-3.2,13-9.2,15.5
		c-11,4.8-22.6,8-34.2,11c-18.4,4.5-37,8.2-55.7,11.2c-10.2,1.5-20.6,3.1-30.9,2.7c-5.4,0-10.2-2.5-15-4.6
		c-6.2-2.9-12.4-6.4-16.6-11.9c-3.1-3.9-4-9.6-1.3-14c3.3-5.4,9.2-8.5,14.8-11c14.2-6.1,29.2-10.5,44.3-13.9
		C807,436,831.1,433.2,855.2,431.7L855.2,431.7z"/>
	<path class="st1" d="M855.2,431.7c7.3-0.1,15-1.8,22,1c5.5,2.2,8.6,7.8,9.6,13.4c0.8,3.4,0.2,6.8,0.4,10.2c0.3,6.3-3.2,13-9.2,15.5
		c-11,4.8-22.6,8-34.2,11c-18.4,4.5-37,8.2-55.7,11.2c-10.2,1.5-20.6,3.1-30.9,2.7c-5.4,0-10.2-2.5-15-4.6
		c-6.2-2.9-12.4-6.4-16.6-11.9c-3.1-3.9-4-9.6-1.3-14c3.3-5.4,9.2-8.5,14.8-11c14.2-6.1,29.2-10.5,44.3-13.9
		C807,436,831.1,433.2,855.2,431.7L855.2,431.7z"/>
	<path class="st0" d="M141.1,448c11.1-3.3,22.7-4.9,34.3-5.6c14.7-0.7,29.4-0.2,44,1.7c12.4,1.7,24.8,4.7,36.2,10.2
		c5.1,2.7,10.4,6,13,11.5c2.6,5.6,0.8,12.5-3.5,16.9c-5.5,5.7-13.1,8.8-20.4,11.3c-12.2,3.6-25,5.2-37.7,5.8
		c-17.5,0.8-35.1,0-52.4-3.3c-10.1-2.1-20.2-4.8-29.5-9.4c-5.3-2.8-11.1-6.6-12.5-12.9v-3.5c0.7-5.9,4.6-10.8,9.3-14.2
		C127.7,452.5,134.4,450,141.1,448L141.1,448z"/>
	<path class="st1" d="M141.1,448c11.1-3.3,22.7-4.9,34.3-5.6c14.7-0.7,29.4-0.2,44,1.7c12.4,1.7,24.8,4.7,36.2,10.2
		c5.1,2.7,10.4,6,13,11.5c2.6,5.6,0.8,12.5-3.5,16.9c-5.5,5.7-13.1,8.8-20.4,11.3c-12.2,3.6-25,5.2-37.7,5.8
		c-17.5,0.8-35.1,0-52.4-3.3c-10.1-2.1-20.2-4.8-29.5-9.4c-5.3-2.8-11.1-6.6-12.5-12.9v-3.5c0.7-5.9,4.6-10.8,9.3-14.2
		C127.7,452.5,134.4,450,141.1,448L141.1,448z"/>
	<path class="st0" d="M710.3,566c12.2-2,24.4,2.2,35.5,7.1c11.1,5.1,21.7,11.2,31.9,17.9c20.1,14.4,40.2,28.7,60.3,43
		c4,2.7,5.5,7.8,5.2,12.4c-0.1,5.4-1.9,10.5-3.8,15.4c-1.7,4.2-4.7,8.3-9.3,9.6c-5.1,1.5-10.3-0.7-14.8-3
		c-37.3-17.3-73-37.8-107.5-60c-5.1-3.1-10.2-6.7-13-12.1c-3.1-5.8-2.1-13,0.7-18.7C698.2,571.6,703.9,567.1,710.3,566L710.3,566z"
		/>
	<path class="st1" d="M710.3,566c12.2-2,24.4,2.2,35.5,7.1c11.1,5.1,21.7,11.2,31.9,17.9c20.1,14.4,40.2,28.7,60.3,43
		c4,2.7,5.5,7.8,5.2,12.4c-0.1,5.4-1.9,10.5-3.8,15.4c-1.7,4.2-4.7,8.3-9.3,9.6c-5.1,1.5-10.3-0.7-14.8-3
		c-37.3-17.3-73-37.8-107.5-60c-5.1-3.1-10.2-6.7-13-12.1c-3.1-5.8-2.1-13,0.7-18.7C698.2,571.6,703.9,567.1,710.3,566L710.3,566z"
		/>
	<path class="st0" d="M265.5,601.6c4.3-0.8,8.8-1.2,13-0.1c5.6,1.5,9.5,7.4,8.9,13.1c-0.6,6-4.1,11.3-7.6,16
		c-7.2,10.2-17,18.2-27.1,25.3c-9.8,6.7-20.2,12.7-31.2,17.2c-8.1,3.2-16.7,5.9-25.5,6.1c-5.6,0.1-11.8-1.3-15.4-5.9
		c-2.2-2.4-2.7-5.9-1.8-8.9c1.4-4.9,4.4-9,7.6-12.9c13.2-15.6,30.1-27.5,47.7-37.5C244.1,608.8,254.4,603.7,265.5,601.6L265.5,601.6
		z"/>
	<path class="st1" d="M265.5,601.6c4.3-0.8,8.8-1.2,13-0.1c5.6,1.5,9.5,7.4,8.9,13.1c-0.6,6-4.1,11.3-7.6,16
		c-7.2,10.2-17,18.2-27.1,25.3c-9.8,6.7-20.2,12.7-31.2,17.2c-8.1,3.2-16.7,5.9-25.5,6.1c-5.6,0.1-11.8-1.3-15.4-5.9
		c-2.2-2.4-2.7-5.9-1.8-8.9c1.4-4.9,4.4-9,7.6-12.9c13.2-15.6,30.1-27.5,47.7-37.5C244.1,608.8,254.4,603.7,265.5,601.6L265.5,601.6
		z"/>
	<path class="st0" d="M617.2,660.4c7.2-2,14.8,0.5,20.9,4.3c9.1,5.4,15.9,13.9,22,22.4c6.2,9,11.7,18.4,16.8,28
		c10.8,23.7,21.8,47.4,32.2,71.3c1.6,4.6,1,9.9-1.6,14.1c-3.9,6.4-10.3,11.5-17.7,13c-4.1,0.9-8.5,0.3-12.2-1.6
		c-4.6-2.2-8.1-6.1-11.9-9.4c-31.7-29.3-53.5-68-66.2-109c-1.9-7.2-1.9-15.3,2.2-21.7C605.3,666.5,610.9,662.2,617.2,660.4
		L617.2,660.4z"/>
	<path class="st1" d="M617.2,660.4c7.2-2,14.8,0.5,20.9,4.3c9.1,5.4,15.9,13.9,22,22.4c6.2,9,11.7,18.4,16.8,28
		c10.8,23.7,21.8,47.4,32.2,71.3c1.6,4.6,1,9.9-1.6,14.1c-3.9,6.4-10.3,11.5-17.7,13c-4.1,0.9-8.5,0.3-12.2-1.6
		c-4.6-2.2-8.1-6.1-11.9-9.4c-31.7-29.3-53.5-68-66.2-109c-1.9-7.2-1.9-15.3,2.2-21.7C605.3,666.5,610.9,662.2,617.2,660.4
		L617.2,660.4z"/>
	<path class="st0" d="M384.4,683.6c3.7-1,7.8-0.7,11,1.4c4.7,2.9,7.1,8.4,7.8,13.8c1.1,9.6-1,19.1-3.3,28.3
		c-5,18.6-13.7,36-23.3,52.6c-7.9,13.4-17.2,26.1-28.9,36.4c-4.9,4.2-10.5,8.3-17.1,9.1c-6.1,0.8-11.9-3.7-13.4-9.5
		c-2-7.4-1-15.2,0.3-22.6c3.6-18.5,10.4-36.2,18.9-53c8.5-16.4,18-32.7,31.4-45.5C372.5,690,377.9,685.5,384.4,683.6L384.4,683.6z"
		/>
	<path class="st1" d="M384.4,683.6c3.7-1,7.8-0.7,11,1.4c4.7,2.9,7.1,8.4,7.8,13.8c1.1,9.6-1,19.1-3.3,28.3
		c-5,18.6-13.7,36-23.3,52.6c-7.9,13.4-17.2,26.1-28.9,36.4c-4.9,4.2-10.5,8.3-17.1,9.1c-6.1,0.8-11.9-3.7-13.4-9.5
		c-2-7.4-1-15.2,0.3-22.6c3.6-18.5,10.4-36.2,18.9-53c8.5-16.4,18-32.7,31.4-45.5C372.5,690,377.9,685.5,384.4,683.6L384.4,683.6z"
		/>
	<path class="st0" d="M497.8,710.3c2-3.3,5-7,9.2-6.8c5,0.4,9.5,3.4,12.8,7c5.3,5.9,8.3,13.5,10.7,20.9c4.1,12.6,5.7,25.9,6.2,39.2
		c0.3,17.5-0.5,35.2-4.1,52.4c-2.2,10.3-5,20.7-10.8,29.7c-2.7,4.1-6.4,7.9-11.3,9.1h-4.8c-4.8-1-8.3-4.8-10.6-8.9
		c-3.8-6.7-5.7-14.3-7.5-21.8c-3.2-14.9-3.6-30.3-3.3-45.5c0.3-15.1,1.2-30.2,3.9-45.1C490.4,730,492.7,719.5,497.8,710.3
		L497.8,710.3z"/>
	<path class="st1" d="M497.8,710.3c2-3.3,5-7,9.2-6.8c5,0.4,9.5,3.4,12.8,7c5.3,5.9,8.3,13.5,10.7,20.9c4.1,12.6,5.7,25.9,6.2,39.2
		c0.3,17.5-0.5,35.2-4.1,52.4c-2.2,10.3-5,20.7-10.8,29.7c-2.7,4.1-6.4,7.9-11.3,9.1h-4.8c-4.8-1-8.3-4.8-10.6-8.9
		c-3.8-6.7-5.7-14.3-7.5-21.8c-3.2-14.9-3.6-30.3-3.3-45.5c0.3-15.1,1.2-30.2,3.9-45.1C490.4,730,492.7,719.5,497.8,710.3
		L497.8,710.3z"/>
</g>
</svg>
